<!DOCTYPE svg PUBLIC "-//W3C//DTD SVG 1.1//EN" "http://www.w3.org/Graphics/SVG/1.1/DTD/svg11.dtd">
<!-- Uploaded to: SVG Repo, www.svgrepo.com, Transformed by: SVG Repo Mixer Tools -->
<svg fill="rgba(224, 164, 73, 1)" width="800px" height="800px" viewBox="0 0 50 50" version="1.2" baseProfile="tiny" xmlns="http://www.w3.org/2000/svg" overflow="inherit">
<g id="SVGRepo_bgCarrier" stroke-width="0"/>
<g id="SVGRepo_tracerCarrier" stroke-linecap="round" stroke-linejoin="round"/>
<g id="SVGRepo_iconCarrier">
<path d="M9.27 19h3.916l.602 18h-5.039l.521-18zm-3.27 19h38v2h3v3h2v2h-48v-2h2v-3h3v-2zm40-24.188l-20.998-8.812-21.002 8.812v1.188h42v-1.188zm-38 2.188h34v2h-34v-2zm28.736 3h3.914l.607 18h-5.046l.525-18zm-9.152 0h3.914l.6 18h-5.041l.527-18zm-9.154 0h3.915l.596 18h-5.039l.528-18z"/>
</g>
</svg>